ply
format ascii 1.0
comment Created by Blender 2.73 (sub 0) - www.blender.org, source file: 'Luigi.blend'
element vertex 528
property float x
property float y
property float z
property float nx
property float ny
property float nz
element face 896
property list uchar uint vertex_indices
end_header
-0.000000 6.743598 6.144832 0.000000 -0.556780 -0.830653
6.076656 6.076657 6.688877 -0.581042 -0.536546 -0.611927
-0.000000 6.150289 6.738138 0.000000 -0.830683 -0.556719
6.071106 6.694428 6.071106 -0.471572 -0.778680 -0.413770
6.382766 6.382768 6.382767 -0.577105 -0.577837 -0.577074
6.076656 6.076657 6.688876 -0.491562 -0.392651 -0.777276
6.071105 6.694429 6.071105 -0.563677 -0.623890 -0.541276
-0.000000 7.518792 5.823736 0.000000 -0.196478 -0.980499
5.736771 7.501588 5.736771 -0.713950 -0.135777 -0.686880
5.736771 7.501585 5.736771 -0.746513 -0.385632 -0.542161
6.144823 6.743505 -0.000000 -0.830653 -0.556780 0.000000
5.823728 7.518700 -0.000000 -0.980499 -0.196478 0.000000
6.738130 6.150197 -0.000000 -0.556749 -0.830653 0.000000
6.688877 6.076656 6.076656 -0.778466 -0.474685 -0.410657
6.159496 0.000000 6.744214 -0.830561 0.000000 -0.556902
6.694428 6.074357 6.071105 -0.621479 -0.568773 -0.538682
6.749777 0.000000 6.153934 -0.556902 0.000000 -0.830561
5.840036 0.000000 7.515453 -0.980438 0.000000 -0.196661
5.742319 5.742320 7.496034 -0.745811 -0.543260 -0.385510
5.742319 5.742320 7.496035 -0.713248 -0.687643 -0.135655
-0.000000 5.829192 7.513333 0.000000 -0.980499 -0.196478
-0.000000 8.357853 5.823737 0.000000 0.196478 -0.980499
5.736773 8.375244 5.736772 -0.609882 0.500900 -0.614063
5.736772 8.375244 5.736772 -0.868801 0.172033 -0.464248
5.823729 8.357760 -0.000000 -0.980499 0.196478 0.000000
7.513326 5.829099 -0.000000 -0.196509 -0.980499 0.000000
7.496035 5.742319 5.739070 -0.415143 -0.687094 -0.596240
7.501587 5.742319 5.736770 -0.144292 -0.668752 -0.729301
7.521018 0.000000 5.834476 -0.196631 0.000000 -0.980468
5.840036 0.000000 8.350237 -0.980468 0.000000 0.196661
5.742318 5.742319 8.369696 -0.712760 -0.687033 0.141026
5.742319 5.742319 8.369698 -0.579699 -0.707083 0.404859
-0.000000 5.829192 8.352400 0.000000 -0.980499 0.196478
-0.000000 9.133050 6.144833 0.000000 0.558794 -0.829279
6.071108 9.182405 6.071107 -0.485702 0.726707 -0.485733
6.144825 9.132957 -0.000000 -0.829279 0.558794 0.000000
10.047316 8.285845 -0.000000 0.983215 0.182379 0.000000
10.134510 8.300364 8.369698 0.966491 0.175451 0.187201
10.128963 7.501583 7.482646 0.996887 -0.056215 -0.055147
10.041990 7.518696 -0.000000 0.981262 -0.192633 0.000000
9.794626 6.694425 6.683329 0.875973 -0.287057 -0.387585
9.720894 6.743501 -0.000000 0.834376 -0.551134 0.000000
9.800177 6.707821 6.688879 0.949705 -0.202460 -0.238807
9.176853 6.076651 6.068808 0.623005 -0.538530 -0.567278
9.127583 6.150192 -0.000000 0.558763 -0.829310 0.000000
9.182404 6.082203 6.071106 0.781365 -0.409192 -0.471114
8.369698 5.742318 5.736771 0.144169 -0.730674 -0.667318
8.352392 5.829099 -0.000000 0.196448 -0.980499 0.000000
8.375246 5.744615 5.736771 0.415113 -0.597705 -0.685842
6.688879 9.800177 6.688879 -0.261147 0.929289 -0.261147
6.738133 9.726265 -0.000000 -0.551103 0.834407 0.000000
7.496037 10.134511 7.496037 -0.053255 0.997131 -0.053377
7.513328 10.047360 -0.000000 -0.189428 0.981872 0.000000
8.352280 10.134511 8.369699 0.185522 0.964568 0.187445
8.344051 10.047360 -0.000000 0.195074 0.980773 0.000000
9.176855 9.800177 8.323795 0.543107 0.821009 0.175787
9.127584 9.726265 -0.000000 0.553087 0.833094 0.000000
9.794628 9.182405 8.323795 0.826075 0.534654 0.178076
9.720896 9.132957 -0.000000 0.838374 0.545030 0.000000
8.355799 0.000000 5.834477 0.196692 0.000000 -0.980438
9.127037 0.000000 6.153935 0.559221 0.000000 -0.828974
9.717319 0.000000 6.744216 0.834803 0.000000 -0.550523
10.033991 0.000000 7.508735 0.981506 0.000000 -0.191382
10.036776 0.000000 8.350239 0.980682 0.000000 0.195471
9.800177 8.300364 9.176855 0.820826 0.177618 0.542833
9.717319 0.000000 9.121477 0.831446 0.000000 0.555559
9.182404 8.300364 9.794628 0.544603 0.175634 0.820063
9.127037 0.000000 9.711761 0.555559 0.000000 0.831446
8.375244 8.300364 10.128963 0.186987 0.173223 0.966948
8.355797 0.000000 10.031218 0.197913 0.000000 0.980193
7.501583 7.501583 10.128963 -0.053224 -0.053743 0.997131
7.521014 0.000000 10.031218 -0.189032 0.000000 0.981964
6.694425 6.694425 9.794626 -0.301035 -0.365917 0.880581
6.749774 0.000000 9.711760 -0.550554 0.000000 0.834773
6.694427 6.694426 9.794626 -0.201544 -0.230934 0.951842
6.076653 6.076652 9.176853 -0.608844 -0.466475 0.641621
6.159493 0.000000 9.121475 -0.829005 0.000000 0.559191
6.076654 6.076653 9.176853 -0.401715 -0.458357 0.792779
-0.000000 6.150285 9.127592 0.000000 -0.829279 0.558794
-0.000000 9.726358 6.738141 0.000000 0.834407 -0.551103
-0.000000 10.047454 7.513335 0.000000 0.981842 -0.189550
-0.000000 10.047454 8.352402 0.000000 0.980224 0.197760
8.352280 9.800177 9.176855 0.186377 0.819849 0.541337
9.259687 9.272656 9.239443 0.584552 0.575304 0.572100
8.352280 9.182405 9.794628 0.186224 0.532975 0.825343
-0.000000 7.518789 10.041998 0.000000 -0.189306 0.981903
-0.000000 8.321944 10.041998 0.000000 0.186987 0.982330
-0.000000 6.743594 9.720900 0.000000 -0.551103 0.834407
-0.000000 9.726358 9.127594 0.000000 0.831446 0.555559
-0.000000 9.133050 9.720903 0.000000 0.545732 0.837916
-6.071107 6.694428 6.071106 0.471572 -0.778680 -0.413770
-6.071106 6.694429 6.071105 0.563677 -0.623890 -0.541276
-6.076657 6.076657 6.688876 0.491562 -0.392651 -0.777276
-6.382767 6.382768 6.382767 0.577105 -0.577837 -0.577074
-6.076657 6.076657 6.688877 0.581042 -0.536546 -0.611927
-5.736772 7.501585 5.736771 0.746513 -0.385632 -0.542161
-5.736772 7.501588 5.736771 0.713950 -0.135777 -0.686880
-6.144824 6.743505 -0.000000 0.830653 -0.556780 0.000000
-5.823729 7.518700 -0.000000 0.980499 -0.196478 0.000000
-6.738131 6.150197 -0.000000 0.556749 -0.830653 0.000000
-6.688878 6.076656 6.076656 0.778466 -0.474685 -0.410657
-6.159497 0.000000 6.744214 0.830561 0.000000 -0.556902
-6.749778 0.000000 6.153934 0.556902 0.000000 -0.830561
-6.694429 6.074357 6.071105 0.621479 -0.568773 -0.538682
-5.840037 0.000000 7.515453 0.980438 0.000000 -0.196661
-5.742320 5.742320 7.496034 0.745811 -0.543260 -0.385510
-5.742320 5.742320 7.496035 0.713248 -0.687643 -0.135655
-5.736773 8.375244 5.736772 0.868801 0.172033 -0.464248
-5.736773 8.375244 5.736772 0.609882 0.500900 -0.614063
-5.823730 8.357760 -0.000000 0.980499 0.196478 0.000000
-7.513327 5.829099 -0.000000 0.196509 -0.980499 0.000000
-7.496036 5.742319 5.739070 0.415143 -0.687094 -0.596240
-7.521019 0.000000 5.834476 0.196631 0.000000 -0.980468
-7.501588 5.742319 5.736770 0.144292 -0.668752 -0.729301
-5.840037 0.000000 8.350237 0.980468 0.000000 0.196661
-5.742319 5.742319 8.369696 0.712760 -0.687033 0.141026
-5.742320 5.742319 8.369698 0.579699 -0.707083 0.404859
-6.071109 9.182405 6.071107 0.485702 0.726707 -0.485733
-6.144825 9.132957 -0.000000 0.829279 0.558794 0.000000
-10.047318 8.285845 -0.000000 -0.983215 0.182379 0.000000
-10.041990 7.518696 -0.000000 -0.981262 -0.192633 0.000000
-10.128963 7.501583 7.482646 -0.996887 -0.056215 -0.055147
-10.134510 8.300364 8.369698 -0.966491 0.175451 0.187201
-9.800177 6.707821 6.688879 -0.949705 -0.202460 -0.238807
-9.720894 6.743501 -0.000000 -0.834376 -0.551134 0.000000
-9.794626 6.694425 6.683329 -0.875973 -0.287057 -0.387585
-9.182404 6.082203 6.071106 -0.781365 -0.409192 -0.471114
-9.127584 6.150192 -0.000000 -0.558763 -0.829310 0.000000
-9.176853 6.076651 6.068808 -0.623005 -0.538530 -0.567278
-8.375246 5.744615 5.736771 -0.415113 -0.597736 -0.685842
-8.352392 5.829099 -0.000000 -0.196448 -0.980499 0.000000
-8.369699 5.742318 5.736771 -0.144169 -0.730674 -0.667287
-6.738134 9.726265 -0.000000 0.551103 0.834407 0.000000
-6.688880 9.800177 6.688879 0.261147 0.929289 -0.261147
-7.513329 10.047360 -0.000000 0.189428 0.981872 0.000000
-7.496038 10.134511 7.496037 0.053255 0.997131 -0.053377
-8.344053 10.047360 -0.000000 -0.195074 0.980773 0.000000
-8.352282 10.134511 8.369699 -0.185522 0.964568 0.187445
-9.127586 9.726265 -0.000000 -0.553087 0.833094 0.000000
-9.176855 9.800177 8.323795 -0.543107 0.821009 0.175787
-9.720896 9.132957 -0.000000 -0.838374 0.545030 0.000000
-9.794628 9.182405 8.323795 -0.826075 0.534654 0.178076
-8.355801 0.000000 5.834477 -0.196692 0.000000 -0.980438
-9.127039 0.000000 6.153935 -0.559221 0.000000 -0.828974
-9.717319 0.000000 6.744216 -0.834803 0.000000 -0.550523
-10.033991 0.000000 7.508735 -0.981506 0.000000 -0.191382
-10.036776 0.000000 8.350239 -0.980682 0.000000 0.195471
-9.717319 0.000000 9.121477 -0.831446 0.000000 0.555559
-9.800177 8.300364 9.176855 -0.820826 0.177618 0.542833
-9.127039 0.000000 9.711761 -0.555559 0.000000 0.831446
-9.182404 8.300364 9.794628 -0.544603 0.175634 0.820063
-8.355799 0.000000 10.031218 -0.197913 0.000000 0.980193
-8.375246 8.300364 10.128963 -0.186987 0.173223 0.966948
-7.521015 0.000000 10.031218 0.189032 0.000000 0.981964
-7.501584 7.501583 10.128963 0.053224 -0.053743 0.997131
-6.694428 6.694426 9.794626 0.201544 -0.230934 0.951842
-6.749775 0.000000 9.711760 0.550554 0.000000 0.834773
-6.694426 6.694425 9.794626 0.301035 -0.365917 0.880581
-6.076655 6.076653 9.176853 0.401715 -0.458357 0.792779
-6.159494 0.000000 9.121475 0.829005 0.000000 0.559191
-6.076654 6.076652 9.176853 0.608844 -0.466475 0.641621
-8.352282 9.800177 9.176855 -0.186377 0.819849 0.541337
-9.259687 9.272656 9.239443 -0.584552 0.575304 0.572100
-8.352282 9.182405 9.794628 -0.186224 0.532975 0.825343
-0.000000 6.743598 -6.144833 0.000000 -0.556780 0.830653
6.071106 6.694428 -6.071107 -0.471572 -0.778680 0.413770
6.071105 6.694429 -6.071106 -0.563677 -0.623890 0.541276
6.076656 6.076657 -6.688877 -0.491562 -0.392651 0.777276
6.382766 6.382768 -6.382768 -0.577105 -0.577837 0.577074
-0.000000 6.150289 -6.738139 0.000000 -0.830683 0.556719
6.076656 6.076657 -6.688878 -0.581042 -0.536546 0.611927
-0.000000 7.518792 -5.823737 0.000000 -0.196478 0.980499
5.736771 7.501585 -5.736772 -0.746513 -0.385632 0.542161
5.736771 7.501588 -5.736772 -0.713950 -0.135777 0.686880
6.688877 6.076656 -6.076657 -0.778466 -0.474685 0.410657
6.159496 0.000000 -6.744215 -0.830561 0.000000 0.556902
6.749777 0.000000 -6.153934 -0.556902 0.000000 0.830561
6.694428 6.074357 -6.071106 -0.621479 -0.568773 0.538682
5.840036 0.000000 -7.515454 -0.980438 0.000000 0.196661
5.742319 5.742320 -7.496035 -0.745811 -0.543260 0.385510
-0.000000 5.829192 -7.513334 0.000000 -0.980499 0.196478
5.742319 5.742320 -7.496036 -0.713279 -0.687582 0.135655
-0.000000 8.357853 -5.823738 0.000000 0.196478 0.980499
5.736772 8.375244 -5.736773 -0.868801 0.172033 0.464248
5.736773 8.375244 -5.736773 -0.609882 0.500900 0.614063
7.496035 5.742319 -5.739071 -0.415143 -0.687094 0.596240
7.521018 0.000000 -5.834477 -0.196631 0.000000 0.980468
7.501587 5.742319 -5.736771 -0.144292 -0.668752 0.729301
5.840036 0.000000 -8.350239 -0.980468 0.000000 -0.196661
5.742318 5.742319 -8.369696 -0.699545 -0.701010 -0.138432
-0.000000 5.829192 -8.352400 0.000000 -0.980499 -0.196478
5.742319 5.742319 -8.369699 -0.562273 -0.726096 -0.395672
-0.000000 9.133050 -6.144834 0.000000 0.558794 0.829279
6.071108 9.182405 -6.071108 -0.485702 0.726707 0.485733
10.128963 7.501583 -7.482647 0.996887 -0.056215 0.055147
10.134510 8.300364 -8.369699 0.966491 0.175451 -0.187201
9.800177 6.707821 -6.688879 0.949705 -0.202460 0.238807
9.794626 6.694425 -6.683330 0.875973 -0.287057 0.387585
9.182404 6.082203 -6.071107 0.781365 -0.409192 0.471114
9.176853 6.076651 -6.068809 0.623005 -0.538530 0.567278
8.375246 5.744615 -5.736772 0.415113 -0.597705 0.685842
8.369698 5.742318 -5.736772 0.144169 -0.730674 0.667318
6.688879 9.800177 -6.688880 -0.261147 0.929289 0.261147
7.496037 10.134511 -7.496038 -0.053255 0.997131 0.053377
8.352280 10.134511 -8.369699 0.185522 0.964568 -0.187445
9.176855 9.800177 -8.323797 0.543107 0.821009 -0.175787
9.794628 9.182405 -8.323797 0.826075 0.534654 -0.178076
8.355799 0.000000 -5.834478 0.196692 0.000000 0.980438
9.127037 0.000000 -6.153936 0.559221 0.000000 0.828974
9.717319 0.000000 -6.744217 0.834803 0.000000 0.550523
10.033991 0.000000 -7.508736 0.981506 0.000000 0.191382
10.036776 0.000000 -8.350241 0.980682 0.000000 -0.195471
9.717319 0.000000 -9.121479 0.831446 0.000000 -0.555559
9.800177 8.300364 -9.176855 0.820826 0.177618 -0.542833
9.127037 0.000000 -9.711761 0.555559 0.000000 -0.831446
9.182404 8.300364 -9.794628 0.544603 0.175634 -0.820063
8.355797 0.000000 -10.031219 0.197913 0.000000 -0.980193
8.375244 8.300364 -10.128963 0.186987 0.173223 -0.966948
7.521014 0.000000 -10.031219 -0.189032 0.000000 -0.981964
7.501583 7.501583 -10.128963 -0.053224 -0.053743 -0.997131
6.694427 6.694426 -9.794626 -0.201544 -0.230934 -0.951842
6.749774 0.000000 -9.711760 -0.550554 0.000000 -0.834773
6.694425 6.694425 -9.794626 -0.301035 -0.365917 -0.880581
6.076654 6.076653 -9.176853 -0.401715 -0.458357 -0.792779
6.159493 0.000000 -9.121477 -0.829005 0.000000 -0.559191
6.076653 6.076652 -9.176853 -0.608844 -0.466475 -0.641621
-0.000000 6.150285 -9.127592 0.000000 -0.829279 -0.558794
-0.000000 9.726358 -6.738142 0.000000 0.834407 0.551103
-0.000000 10.047454 -7.513336 0.000000 0.981842 0.189550
-0.000000 10.047454 -8.352402 0.000000 0.980224 -0.197760
8.352280 9.800177 -9.176855 0.186377 0.819849 -0.541337
9.259687 9.272656 -9.239443 0.584552 0.575304 -0.572100
8.352280 9.182405 -9.794628 0.186224 0.532975 -0.825343
-0.000000 7.518789 -10.042000 0.000000 -0.189306 -0.981903
-0.000000 8.321944 -10.042000 0.000000 0.186987 -0.982330
-0.000000 6.743594 -9.720901 0.000000 -0.551103 -0.834407
-0.000000 9.726358 -9.127594 0.000000 0.831446 -0.555559
-0.000000 9.133050 -9.720903 0.000000 0.545732 -0.837916
-6.076657 6.076657 -6.688878 0.581042 -0.536546 0.611927
-6.071107 6.694428 -6.071107 0.471572 -0.778680 0.413770
-6.382767 6.382768 -6.382768 0.577105 -0.577837 0.577074
-6.076657 6.076657 -6.688877 0.491562 -0.392651 0.777276
-6.071106 6.694429 -6.071106 0.563677 -0.623890 0.541276
-5.736772 7.501588 -5.736772 0.713950 -0.135777 0.686880
-5.736772 7.501585 -5.736772 0.746513 -0.385632 0.542161
-6.688878 6.076656 -6.076657 0.778466 -0.474685 0.410657
-6.159497 0.000000 -6.744215 0.830561 0.000000 0.556902
-6.694429 6.074357 -6.071106 0.621479 -0.568773 0.538682
-6.749778 0.000000 -6.153934 0.556902 0.000000 0.830561
-5.840037 0.000000 -7.515454 0.980438 0.000000 0.196661
-5.742320 5.742320 -7.496035 0.745811 -0.543260 0.385510
-5.742320 5.742320 -7.496036 0.713279 -0.687582 0.135655
-5.736773 8.375244 -5.736773 0.609882 0.500900 0.614063
-5.736773 8.375244 -5.736773 0.868801 0.172033 0.464248
-7.496036 5.742319 -5.739071 0.415143 -0.687094 0.596240
-7.501588 5.742319 -5.736771 0.144292 -0.668752 0.729301
-7.521019 0.000000 -5.834477 0.196631 0.000000 0.980468
-5.840037 0.000000 -8.350239 0.980468 0.000000 -0.196661
-5.742319 5.742319 -8.369696 0.699545 -0.701010 -0.138432
-5.742320 5.742319 -8.369699 0.562273 -0.726096 -0.395672
-6.071109 9.182405 -6.071108 0.485702 0.726707 0.485733
-10.134510 8.300364 -8.369699 -0.966491 0.175451 -0.187201
-10.128963 7.501583 -7.482647 -0.996887 -0.056246 0.055147
-9.794626 6.694425 -6.683330 -0.875973 -0.287057 0.387585
-9.800177 6.707821 -6.688879 -0.949705 -0.202460 0.238807
-9.176853 6.076651 -6.068809 -0.623005 -0.538530 0.567278
-9.182404 6.082203 -6.071107 -0.781365 -0.409192 0.471114
-8.369699 5.742318 -5.736772 -0.144169 -0.730674 0.667287
-8.375246 5.744615 -5.736772 -0.415113 -0.597736 0.685842
-6.688880 9.800177 -6.688880 0.261147 0.929289 0.261147
-7.496038 10.134511 -7.496038 0.053255 0.997131 0.053377
-8.352282 10.134511 -8.369699 -0.185522 0.964568 -0.187445
-9.176855 9.800177 -8.323797 -0.543107 0.821009 -0.175787
-9.794628 9.182405 -8.323797 -0.826075 0.534654 -0.178076
-8.355801 0.000000 -5.834478 -0.196692 0.000000 0.980438
-9.127039 0.000000 -6.153936 -0.559221 0.000000 0.828974
-9.717319 0.000000 -6.744217 -0.834803 0.000000 0.550523
-10.033991 0.000000 -7.508736 -0.981506 0.000000 0.191382
-10.036776 0.000000 -8.350241 -0.980682 0.000000 -0.195471
-9.800177 8.300364 -9.176855 -0.820826 0.177618 -0.542833
-9.717319 0.000000 -9.121479 -0.831446 0.000000 -0.555559
-9.182404 8.300364 -9.794628 -0.544603 0.175634 -0.820063
-9.127039 0.000000 -9.711761 -0.555559 0.000000 -0.831446
-8.375246 8.300364 -10.128963 -0.186987 0.173223 -0.966948
-8.355799 0.000000 -10.031219 -0.197913 0.000000 -0.980193
-7.501584 7.501583 -10.128963 0.053224 -0.053743 -0.997131
-7.521015 0.000000 -10.031219 0.189032 0.000000 -0.981964
-6.694426 6.694425 -9.794626 0.301035 -0.365917 -0.880581
-6.749775 0.000000 -9.711760 0.550554 0.000000 -0.834773
-6.694428 6.694426 -9.794626 0.201544 -0.230934 -0.951842
-6.076654 6.076652 -9.176853 0.608844 -0.466475 -0.641621
-6.159494 0.000000 -9.121477 0.829005 0.000000 -0.559191
-6.076655 6.076653 -9.176853 0.401715 -0.458357 -0.792779
-8.352282 9.800177 -9.176855 -0.186377 0.819849 -0.541337
-9.259687 9.272656 -9.239443 -0.584552 0.575304 -0.572100
-8.352282 9.182405 -9.794628 -0.186224 0.532975 -0.825343
-0.000000 -6.743598 6.144832 0.000000 0.556780 -0.830653
6.071106 -6.694428 6.071106 -0.471572 0.778680 -0.413770
6.071105 -6.694429 6.071105 -0.563677 0.623890 -0.541276
6.076656 -6.076657 6.688876 -0.491562 0.392651 -0.777276
6.382766 -6.382768 6.382767 -0.577105 0.577837 -0.577074
-0.000000 -6.150289 6.738138 0.000000 0.830683 -0.556719
6.076656 -6.076657 6.688877 -0.581042 0.536546 -0.611927
-0.000000 -7.518792 5.823736 0.000000 0.196478 -0.980499
5.736771 -7.501585 5.736771 -0.746513 0.385632 -0.542161
5.736771 -7.501588 5.736771 -0.713950 0.135777 -0.686880
6.144823 -6.743505 -0.000000 -0.830653 0.556780 0.000000
5.823728 -7.518700 -0.000000 -0.980499 0.196478 0.000000
6.738130 -6.150197 -0.000000 -0.556749 0.830653 0.000000
6.688877 -6.076656 6.076656 -0.778466 0.474685 -0.410657
6.694428 -6.074357 6.071105 -0.621479 0.568773 -0.538682
5.742319 -5.742320 7.496034 -0.745811 0.543260 -0.385510
-0.000000 -5.829192 7.513333 0.000000 0.980499 -0.196478
5.742319 -5.742320 7.496035 -0.713248 0.687643 -0.135655
-0.000000 -8.357853 5.823737 0.000000 -0.196478 -0.980499
5.736772 -8.375244 5.736772 -0.868801 -0.172033 -0.464248
5.736773 -8.375244 5.736772 -0.609882 -0.500900 -0.614063
5.823729 -8.357760 -0.000000 -0.980499 -0.196478 0.000000
7.513326 -5.829099 -0.000000 -0.196509 0.980499 0.000000
7.496035 -5.742319 5.739070 -0.415143 0.687094 -0.596240
7.501587 -5.742319 5.736770 -0.144292 0.668752 -0.729301
5.742318 -5.742319 8.369696 -0.712760 0.687033 0.141026
-0.000000 -5.829192 8.352400 0.000000 0.980499 0.196478
5.742319 -5.742319 8.369698 -0.579699 0.707083 0.404859
-0.000000 -9.133050 6.144833 0.000000 -0.558794 -0.829279
6.071108 -9.182405 6.071107 -0.485702 -0.726707 -0.485733
6.144825 -9.132957 -0.000000 -0.829279 -0.558794 0.000000
10.047316 -8.285845 -0.000000 0.983215 -0.182379 0.000000
10.041990 -7.518696 -0.000000 0.981262 0.192633 0.000000
10.128963 -7.501583 7.482646 0.996887 0.056215 -0.055147
10.134510 -8.300364 8.369698 0.966491 -0.175451 0.187201
9.800177 -6.707821 6.688879 0.949705 0.202460 -0.238807
9.720894 -6.743501 -0.000000 0.834376 0.551134 0.000000
9.794626 -6.694425 6.683329 0.875973 0.287057 -0.387585
9.182404 -6.082203 6.071106 0.781365 0.409192 -0.471114
9.127583 -6.150192 -0.000000 0.558763 0.829310 0.000000
9.176853 -6.076651 6.068808 0.623005 0.538530 -0.567278
8.375246 -5.744615 5.736771 0.415113 0.597705 -0.685842
8.352392 -5.829099 -0.000000 0.196448 0.980499 0.000000
8.369698 -5.742318 5.736771 0.144169 0.730674 -0.667318
6.738133 -9.726265 -0.000000 -0.551103 -0.834407 0.000000
6.688879 -9.800177 6.688879 -0.261147 -0.929289 -0.261147
7.513328 -10.047360 -0.000000 -0.189428 -0.981872 0.000000
7.496037 -10.134511 7.496037 -0.053255 -0.997131 -0.053377
8.344051 -10.047360 -0.000000 0.195074 -0.980773 0.000000
8.352280 -10.134511 8.369699 0.185522 -0.964568 0.187445
9.127584 -9.726265 -0.000000 0.553087 -0.833094 0.000000
9.176855 -9.800177 8.323795 0.543107 -0.821009 0.175787
9.720896 -9.132957 -0.000000 0.838374 -0.545030 0.000000
9.794628 -9.182405 8.323795 0.826075 -0.534654 0.178076
9.800177 -8.300364 9.176855 0.820826 -0.177618 0.542833
9.182404 -8.300364 9.794628 0.544603 -0.175634 0.820063
8.375244 -8.300364 10.128963 0.186987 -0.173223 0.966948
7.501583 -7.501583 10.128963 -0.053224 0.053743 0.997131
6.694427 -6.694426 9.794626 -0.201544 0.230934 0.951842
6.694425 -6.694425 9.794626 -0.301035 0.365917 0.880581
6.076654 -6.076653 9.176853 -0.401715 0.458357 0.792779
6.076653 -6.076652 9.176853 -0.608844 0.466475 0.641621
-0.000000 -6.150285 9.127592 0.000000 0.829279 0.558794
-0.000000 -9.726358 6.738141 0.000000 -0.834407 -0.551103
-0.000000 -10.047454 7.513335 0.000000 -0.981842 -0.189550
-0.000000 -10.047454 8.352402 0.000000 -0.980224 0.197760
8.352280 -9.800177 9.176855 0.186377 -0.819849 0.541337
9.259687 -9.272656 9.239443 0.584552 -0.575304 0.572100
8.352280 -9.182405 9.794628 0.186224 -0.532975 0.825343
-0.000000 -7.518789 10.041998 0.000000 0.189306 0.981903
-0.000000 -8.321944 10.041998 0.000000 -0.186987 0.982330
-0.000000 -6.743594 9.720900 0.000000 0.551103 0.834407
-0.000000 -9.726358 9.127594 0.000000 -0.831446 0.555559
-0.000000 -9.133050 9.720903 0.000000 -0.545732 0.837916
-6.076657 -6.076657 6.688877 0.581042 0.536546 -0.611927
-6.071107 -6.694428 6.071106 0.471572 0.778680 -0.413770
-6.382767 -6.382768 6.382767 0.577105 0.577837 -0.577074
-6.076657 -6.076657 6.688876 0.491562 0.392651 -0.777276
-6.071106 -6.694429 6.071105 0.563677 0.623890 -0.541276
-5.736772 -7.501588 5.736771 0.713950 0.135777 -0.686880
-5.736772 -7.501585 5.736771 0.746513 0.385632 -0.542161
-6.144824 -6.743505 -0.000000 0.830653 0.556780 0.000000
-5.823729 -7.518700 -0.000000 0.980499 0.196478 0.000000
-6.738131 -6.150197 -0.000000 0.556749 0.830653 0.000000
-6.688878 -6.076656 6.076656 0.778466 0.474685 -0.410657
-6.694429 -6.074357 6.071105 0.621479 0.568773 -0.538682
-5.742320 -5.742320 7.496034 0.745811 0.543260 -0.385510
-5.742320 -5.742320 7.496035 0.713248 0.687643 -0.135655
-5.736773 -8.375244 5.736772 0.609882 -0.500900 -0.614063
-5.736773 -8.375244 5.736772 0.868801 -0.172033 -0.464248
-5.823730 -8.357760 -0.000000 0.980499 -0.196478 0.000000
-7.513327 -5.829099 -0.000000 0.196509 0.980499 0.000000
-7.496036 -5.742319 5.739070 0.415143 0.687094 -0.596240
-7.501588 -5.742319 5.736770 0.144292 0.668752 -0.729301
-5.742319 -5.742319 8.369696 0.712760 0.687033 0.141026
-5.742320 -5.742319 8.369698 0.579699 0.707083 0.404859
-6.071109 -9.182405 6.071107 0.485702 -0.726707 -0.485733
-6.144825 -9.132957 -0.000000 0.829279 -0.558794 0.000000
-10.047318 -8.285845 -0.000000 -0.983215 -0.182379 0.000000
-10.134510 -8.300364 8.369698 -0.966491 -0.175451 0.187201
-10.128963 -7.501583 7.482646 -0.996887 0.056215 -0.055147
-10.041990 -7.518696 -0.000000 -0.981262 0.192633 0.000000
-9.794626 -6.694425 6.683329 -0.875973 0.287057 -0.387585
-9.720894 -6.743501 -0.000000 -0.834376 0.551134 0.000000
-9.800177 -6.707821 6.688879 -0.949705 0.202460 -0.238807
-9.176853 -6.076651 6.068808 -0.623005 0.538530 -0.567278
-9.127584 -6.150192 -0.000000 -0.558763 0.829310 0.000000
-9.182404 -6.082203 6.071106 -0.781365 0.409192 -0.471114
-8.369699 -5.742318 5.736771 -0.144169 0.730674 -0.667287
-8.352392 -5.829099 -0.000000 -0.196448 0.980499 0.000000
-8.375246 -5.744615 5.736771 -0.415113 0.597736 -0.685842
-6.688880 -9.800177 6.688879 0.261147 -0.929289 -0.261147
-6.738134 -9.726265 -0.000000 0.551103 -0.834407 0.000000
-7.496038 -10.134511 7.496037 0.053255 -0.997131 -0.053377
-7.513329 -10.047360 -0.000000 0.189428 -0.981872 0.000000
-8.352282 -10.134511 8.369699 -0.185522 -0.964568 0.187445
-8.344053 -10.047360 -0.000000 -0.195074 -0.980773 0.000000
-9.176855 -9.800177 8.323795 -0.543107 -0.821009 0.175787
-9.127586 -9.726265 -0.000000 -0.553087 -0.833094 0.000000
-9.794628 -9.182405 8.323795 -0.826075 -0.534654 0.178076
-9.720896 -9.132957 -0.000000 -0.838374 -0.545030 0.000000
-9.800177 -8.300364 9.176855 -0.820826 -0.177618 0.542833
-9.182404 -8.300364 9.794628 -0.544603 -0.175634 0.820063
-8.375246 -8.300364 10.128963 -0.186987 -0.173223 0.966948
-7.501584 -7.501583 10.128963 0.053224 0.053743 0.997131
-6.694426 -6.694425 9.794626 0.301035 0.365917 0.880581
-6.694428 -6.694426 9.794626 0.201544 0.230934 0.951842
-6.076654 -6.076652 9.176853 0.608844 0.466475 0.641621
-6.076655 -6.076653 9.176853 0.401715 0.458357 0.792779
-8.352282 -9.800177 9.176855 -0.186377 -0.819849 0.541337
-9.259687 -9.272656 9.239443 -0.584552 -0.575304 0.572100
-8.352282 -9.182405 9.794628 -0.186224 -0.532975 0.825343
-0.000000 -6.743598 -6.144833 0.000000 0.556780 0.830653
6.076656 -6.076657 -6.688878 -0.581042 0.536546 0.611927
-0.000000 -6.150289 -6.738139 0.000000 0.830683 0.556719
6.071106 -6.694428 -6.071107 -0.471572 0.778680 0.413770
6.382766 -6.382768 -6.382768 -0.577105 0.577837 0.577074
6.076656 -6.076657 -6.688877 -0.491562 0.392651 0.777276
6.071105 -6.694429 -6.071106 -0.563677 0.623890 0.541276
-0.000000 -7.518792 -5.823737 0.000000 0.196478 0.980499
5.736771 -7.501588 -5.736772 -0.713950 0.135777 0.686880
5.736771 -7.501585 -5.736772 -0.746513 0.385632 0.542161
6.688877 -6.076656 -6.076657 -0.778466 0.474685 0.410657
6.694428 -6.074357 -6.071106 -0.621479 0.568773 0.538682
5.742319 -5.742320 -7.496035 -0.745811 0.543260 0.385510
5.742319 -5.742320 -7.496036 -0.713279 0.687582 0.135655
-0.000000 -5.829192 -7.513334 0.000000 0.980499 0.196478
-0.000000 -8.357853 -5.823738 0.000000 -0.196478 0.980499
5.736773 -8.375244 -5.736773 -0.609882 -0.500900 0.614063
5.736772 -8.375244 -5.736773 -0.868801 -0.172033 0.464248
7.496035 -5.742319 -5.739071 -0.415143 0.687094 0.596240
7.501587 -5.742319 -5.736771 -0.144292 0.668752 0.729301
5.742318 -5.742319 -8.369696 -0.699545 0.701010 -0.138432
5.742319 -5.742319 -8.369699 -0.562273 0.726096 -0.395672
-0.000000 -5.829192 -8.352400 0.000000 0.980499 -0.196478
-0.000000 -9.133050 -6.144834 0.000000 -0.558794 0.829279
6.071108 -9.182405 -6.071108 -0.485702 -0.726707 0.485733
10.134510 -8.300364 -8.369699 0.966491 -0.175451 -0.187201
10.128963 -7.501583 -7.482647 0.996887 0.056246 0.055147
9.794626 -6.694425 -6.683330 0.875973 0.287057 0.387585
9.800177 -6.707821 -6.688879 0.949705 0.202460 0.238807
9.176853 -6.076651 -6.068809 0.623005 0.538530 0.567278
9.182404 -6.082203 -6.071107 0.781365 0.409192 0.471114
8.369698 -5.742318 -5.736772 0.144169 0.730674 0.667318
8.375246 -5.744615 -5.736772 0.415113 0.597705 0.685842
6.688879 -9.800177 -6.688880 -0.261147 -0.929289 0.261147
7.496037 -10.134511 -7.496038 -0.053255 -0.997131 0.053377
8.352280 -10.134511 -8.369699 0.185522 -0.964568 -0.187445
9.176855 -9.800177 -8.323797 0.543107 -0.821009 -0.175787
9.794628 -9.182405 -8.323797 0.826075 -0.534654 -0.178076
9.800177 -8.300364 -9.176855 0.820826 -0.177618 -0.542833
9.182404 -8.300364 -9.794628 0.544603 -0.175634 -0.820063
8.375244 -8.300364 -10.128963 0.186987 -0.173223 -0.966948
7.501583 -7.501583 -10.128963 -0.053224 0.053743 -0.997131
6.694425 -6.694425 -9.794626 -0.301035 0.365917 -0.880581
6.694427 -6.694426 -9.794626 -0.201544 0.230934 -0.951842
6.076653 -6.076652 -9.176853 -0.608844 0.466475 -0.641621
6.076654 -6.076653 -9.176853 -0.401715 0.458357 -0.792779
-0.000000 -6.150285 -9.127592 0.000000 0.829279 -0.558794
-0.000000 -9.726358 -6.738142 0.000000 -0.834407 0.551103
-0.000000 -10.047454 -7.513336 0.000000 -0.981842 0.189550
-0.000000 -10.047454 -8.352402 0.000000 -0.980224 -0.197760
8.352280 -9.800177 -9.176855 0.186377 -0.819849 -0.541337
9.259687 -9.272656 -9.239443 0.584552 -0.575304 -0.572100
8.352280 -9.182405 -9.794628 0.186224 -0.532975 -0.825343
-0.000000 -7.518789 -10.042000 0.000000 0.189306 -0.981903
-0.000000 -8.321944 -10.042000 0.000000 -0.186987 -0.982330
-0.000000 -6.743594 -9.720901 0.000000 0.551103 -0.834407
-0.000000 -9.726358 -9.127594 0.000000 -0.831446 -0.555559
-0.000000 -9.133050 -9.720903 0.000000 -0.545732 -0.837916
-6.071107 -6.694428 -6.071107 0.471572 0.778680 0.413770
-6.071106 -6.694429 -6.071106 0.563677 0.623890 0.541276
-6.076657 -6.076657 -6.688877 0.491562 0.392651 0.777276
-6.382767 -6.382768 -6.382768 0.577105 0.577837 0.577074
-6.076657 -6.076657 -6.688878 0.581042 0.536546 0.611927
-5.736772 -7.501585 -5.736772 0.746513 0.385632 0.542161
-5.736772 -7.501588 -5.736772 0.713950 0.135777 0.686880
-6.688878 -6.076656 -6.076657 0.778466 0.474685 0.410657
-6.694429 -6.074357 -6.071106 0.621479 0.568773 0.538682
-5.742320 -5.742320 -7.496035 0.745811 0.543260 0.385510
-5.742320 -5.742320 -7.496036 0.713279 0.687582 0.135655
-5.736773 -8.375244 -5.736773 0.868801 -0.172033 0.464248
-5.736773 -8.375244 -5.736773 0.609882 -0.500900 0.614063
-7.496036 -5.742319 -5.739071 0.415143 0.687094 0.596240
-7.501588 -5.742319 -5.736771 0.144292 0.668752 0.729301
-5.742319 -5.742319 -8.369696 0.699545 0.701010 -0.138432
-5.742320 -5.742319 -8.369699 0.562273 0.726096 -0.395672
-6.071109 -9.182405 -6.071108 0.485702 -0.726707 0.485733
-10.128963 -7.501583 -7.482647 -0.996887 0.056246 0.055147
-10.134510 -8.300364 -8.369699 -0.966491 -0.175451 -0.187201
-9.800177 -6.707821 -6.688879 -0.949705 0.202460 0.238807
-9.794626 -6.694425 -6.683330 -0.875973 0.287057 0.387585
-9.182404 -6.082203 -6.071107 -0.781365 0.409192 0.471114
-9.176853 -6.076651 -6.068809 -0.623005 0.538530 0.567278
-8.375246 -5.744615 -5.736772 -0.415113 0.597736 0.685842
-8.369699 -5.742318 -5.736772 -0.144169 0.730674 0.667287
-6.688880 -9.800177 -6.688880 0.261147 -0.929289 0.261147
-7.496038 -10.134511 -7.496038 0.053255 -0.997131 0.053377
-8.352282 -10.134511 -8.369699 -0.185522 -0.964568 -0.187445
-9.176855 -9.800177 -8.323797 -0.543107 -0.821009 -0.175787
-9.794628 -9.182405 -8.323797 -0.826075 -0.534654 -0.178076
-9.800177 -8.300364 -9.176855 -0.820826 -0.177618 -0.542833
-9.182404 -8.300364 -9.794628 -0.544603 -0.175634 -0.820063
-8.375246 -8.300364 -10.128963 -0.186987 -0.173223 -0.966948
-7.501584 -7.501583 -10.128963 0.053224 0.053743 -0.997131
-6.694428 -6.694426 -9.794626 0.201544 0.230934 -0.951842
-6.694426 -6.694425 -9.794626 0.301035 0.365917 -0.880581
-6.076655 -6.076653 -9.176853 0.401715 0.458357 -0.792779
-6.076654 -6.076652 -9.176853 0.608844 0.466475 -0.641621
-8.352282 -9.800177 -9.176855 -0.186377 -0.819849 -0.541337
-9.259687 -9.272656 -9.239443 -0.584552 -0.575304 -0.572100
-8.352282 -9.182405 -9.794628 -0.186224 -0.532975 -0.825343
3 0 1 2
3 3 4 5
3 0 5 1
3 0 6 3
3 0 3 5
3 7 6 0
3 7 8 9
3 7 9 6
3 10 9 11
3 10 3 6
3 10 6 9
3 12 3 10
3 13 4 3
3 12 13 3
3 14 15 16
3 5 4 13
3 14 13 15
3 14 5 13
3 17 5 14
3 17 18 1
3 17 1 5
3 2 19 20
3 1 18 19
3 2 1 19
3 21 8 7
3 21 22 23
3 21 23 8
3 11 23 24
3 11 9 8
3 11 8 23
3 25 13 12
3 25 26 15
3 25 15 13
3 16 27 28
3 16 15 26
3 16 26 27
3 29 18 17
3 29 30 19
3 29 19 18
3 20 31 32
3 20 19 30
3 20 30 31
4 33 34 22 21
3 24 34 35
3 24 23 22
3 24 22 34
4 36 37 38 39
3 39 40 41
3 39 38 42
3 39 42 40
3 41 43 44
3 41 40 45
3 41 45 43
3 44 46 47
3 44 43 48
3 44 48 46
3 47 26 25
3 47 46 27
3 47 27 26
4 35 34 49 50
4 50 49 51 52
4 52 51 53 54
4 54 53 55 56
4 56 55 57 58
4 58 57 37 36
3 28 48 59
3 28 27 46
3 28 46 48
3 59 45 60
3 59 48 43
3 59 43 45
3 60 42 61
3 60 45 40
3 60 40 42
4 61 42 38 62
4 62 38 37 63
4 63 37 64 65
4 65 64 66 67
4 67 66 68 69
4 69 68 70 71
3 71 72 73
3 71 70 74
3 71 74 72
3 73 75 76
3 72 77 75
3 73 72 75
3 76 30 29
3 76 75 31
3 76 31 30
3 32 77 78
3 32 31 75
3 32 75 77
4 79 49 34 33
4 80 51 49 79
4 81 53 51 80
3 53 82 55
3 55 83 57
3 37 57 64
3 64 83 66
3 66 84 68
4 85 70 68 86
4 87 74 70 85
3 78 74 87
3 78 77 72
3 78 72 74
4 88 82 53 81
3 82 83 55
3 57 83 64
3 84 66 83
4 68 84 89 86
4 89 84 82 88
3 84 83 82
3 0 90 91
3 92 93 90
3 2 94 92
3 0 2 90
3 2 92 90
3 7 95 96
3 0 91 95
3 7 0 95
3 97 91 90
3 98 95 91
3 97 98 91
3 99 93 100
3 97 90 93
3 99 97 93
3 101 93 92
3 102 103 100
3 101 100 93
3 101 102 100
3 104 94 105
3 101 92 94
3 104 101 94
3 2 105 94
3 20 106 105
3 2 20 105
3 21 107 108
3 7 96 107
3 21 7 107
3 98 96 95
3 109 107 96
3 98 109 96
3 110 103 111
3 99 100 103
3 110 99 103
3 102 111 103
3 112 113 111
3 102 112 111
3 114 106 115
3 104 105 106
3 114 104 106
3 20 115 106
3 32 116 115
3 20 32 115
4 33 21 108 117
3 109 108 107
3 118 117 108
3 109 118 108
4 119 120 121 122
3 120 123 121
3 124 125 123
3 120 124 123
3 124 126 125
3 127 128 126
3 124 127 126
3 127 129 128
3 130 131 129
3 127 130 129
3 130 113 131
3 110 111 113
3 130 110 113
4 118 132 133 117
4 132 134 135 133
4 134 136 137 135
4 136 138 139 137
4 138 140 141 139
4 140 119 122 141
3 112 131 113
3 142 129 131
3 112 142 131
3 142 128 129
3 143 126 128
3 142 143 128
3 143 125 126
3 144 123 125
3 143 144 125
4 144 145 121 123
4 145 146 122 121
4 146 147 148 122
4 147 149 150 148
4 149 151 152 150
4 151 153 154 152
3 153 155 154
3 156 157 155
3 153 156 155
3 156 158 157
3 156 159 160
3 156 160 158
3 159 116 160
3 114 115 116
3 159 114 116
3 32 160 116
3 32 78 158
3 32 158 160
4 79 33 117 133
4 80 79 133 135
4 81 80 135 137
3 137 139 161
3 139 141 162
3 122 148 141
3 148 150 162
3 150 152 163
4 85 86 152 154
4 87 85 154 155
3 78 157 158
3 78 87 155
3 78 155 157
4 88 81 137 161
3 161 139 162
3 141 148 162
3 163 162 150
4 152 86 89 163
4 89 88 161 163
3 163 161 162
3 164 165 166
3 167 168 165
3 169 170 167
3 164 169 165
3 169 167 165
3 171 172 173
3 164 166 172
3 171 164 172
3 10 166 165
3 11 172 166
3 10 11 166
3 12 168 174
3 10 165 168
3 12 10 168
3 175 168 167
3 176 177 174
3 175 174 168
3 175 176 174
3 178 170 179
3 178 175 167
3 178 167 170
3 169 179 170
3 180 181 179
3 169 180 179
3 182 183 184
3 171 173 183
3 182 171 183
3 11 173 172
3 24 183 173
3 11 24 173
3 25 177 185
3 12 174 177
3 25 12 177
3 176 185 177
3 186 187 185
3 176 186 185
3 188 181 189
3 178 179 181
3 188 178 181
3 180 189 181
3 190 191 189
3 180 190 189
4 192 182 184 193
3 24 184 183
3 35 193 184
3 24 35 184
4 36 39 194 195
3 39 196 194
3 41 197 196
3 39 41 196
3 41 198 197
3 44 199 198
3 41 44 198
3 44 200 199
3 47 201 200
3 44 47 200
3 47 187 201
3 25 185 187
3 47 25 187
4 35 50 202 193
4 50 52 203 202
4 52 54 204 203
4 54 56 205 204
4 56 58 206 205
4 58 36 195 206
3 186 201 187
3 207 200 201
3 186 207 201
3 207 199 200
3 208 198 199
3 207 208 199
3 208 197 198
3 209 196 197
3 208 209 197
4 209 210 194 196
4 210 211 195 194
4 211 212 213 195
4 212 214 215 213
4 214 216 217 215
4 216 218 219 217
3 218 220 219
3 221 222 220
3 218 221 220
3 221 223 222
3 224 225 223
3 221 224 223
3 224 191 225
3 188 189 191
3 224 188 191
3 190 225 191
3 226 223 225
3 190 226 225
4 227 192 193 202
4 228 227 202 203
4 229 228 203 204
3 204 205 230
3 205 206 231
3 195 213 206
3 213 215 231
3 215 217 232
4 233 234 217 219
4 235 233 219 220
3 226 222 223
3 226 235 220
3 226 220 222
4 236 229 204 230
3 230 205 231
3 206 213 231
3 232 231 215
4 217 234 237 232
4 237 236 230 232
3 232 230 231
3 164 238 169
3 239 240 241
3 164 241 238
3 164 242 239
3 164 239 241
3 171 242 164
3 171 243 244
3 171 244 242
3 97 244 98
3 97 239 242
3 97 242 244
3 99 239 97
3 245 240 239
3 99 245 239
3 246 247 248
3 241 240 245
3 246 245 247
3 246 241 245
3 249 241 246
3 249 250 238
3 249 238 241
3 169 251 180
3 238 250 251
3 169 238 251
3 182 243 171
3 182 252 253
3 182 253 243
3 98 253 109
3 98 244 243
3 98 243 253
3 110 245 99
3 110 254 247
3 110 247 245
3 248 255 256
3 248 247 254
3 248 254 255
3 257 250 249
3 257 258 251
3 257 251 250
3 180 259 190
3 251 258 259
3 180 251 259
4 192 260 252 182
3 109 260 118
3 253 252 260
3 109 253 260
4 119 261 262 120
3 120 263 124
3 120 262 264
3 120 264 263
3 124 265 127
3 124 263 266
3 124 266 265
3 127 267 130
3 127 265 268
3 127 268 267
3 130 254 110
3 130 267 255
3 130 255 254
4 118 260 269 132
4 132 269 270 134
4 134 270 271 136
4 136 271 272 138
4 138 272 273 140
4 140 273 261 119
3 256 268 274
3 256 255 267
3 256 267 268
3 274 266 275
3 274 268 265
3 274 265 266
3 275 264 276
3 275 266 263
3 275 263 264
4 276 264 262 277
4 277 262 261 278
4 278 261 279 280
4 280 279 281 282
4 282 281 283 284
4 284 283 285 286
3 286 287 288
3 286 285 289
3 286 289 287
3 288 290 291
3 287 292 290
3 288 287 290
3 291 258 257
3 291 290 259
3 291 259 258
3 190 292 226
3 190 259 290
3 190 290 292
4 227 269 260 192
4 228 270 269 227
4 229 271 270 228
3 271 293 272
3 272 294 273
3 261 273 279
3 279 294 281
3 281 295 283
4 233 285 283 234
4 235 289 285 233
3 226 289 235
3 226 292 287
3 226 287 289
4 236 293 271 229
3 293 294 272
3 273 294 279
3 295 281 294
4 283 295 237 234
4 237 295 293 236
3 295 294 293
3 296 297 298
3 299 300 297
3 301 302 299
3 296 301 297
3 301 299 297
3 303 304 305
3 296 298 304
3 303 296 304
3 306 298 297
3 307 304 298
3 306 307 298
3 308 300 309
3 306 297 300
3 308 306 300
3 14 300 299
3 16 310 309
3 14 309 300
3 14 16 309
3 17 302 311
3 14 299 302
3 17 14 302
3 301 311 302
3 312 313 311
3 301 312 311
3 314 315 316
3 303 305 315
3 314 303 315
3 307 305 304
3 317 315 305
3 307 317 305
3 318 310 319
3 308 309 310
3 318 308 310
3 16 319 310
3 28 320 319
3 16 28 319
3 29 313 321
3 17 311 313
3 29 17 313
3 312 321 313
3 322 323 321
3 312 322 321
4 324 314 316 325
3 317 316 315
3 326 325 316
3 317 326 316
4 327 328 329 330
3 328 331 329
3 332 333 331
3 328 332 331
3 332 334 333
3 335 336 334
3 332 335 334
3 335 337 336
3 338 339 337
3 335 338 337
3 338 320 339
3 318 319 320
3 338 318 320
4 326 340 341 325
4 340 342 343 341
4 342 344 345 343
4 344 346 347 345
4 346 348 349 347
4 348 327 330 349
3 28 339 320
3 59 337 339
3 28 59 339
3 59 336 337
3 60 334 336
3 59 60 336
3 60 333 334
3 61 331 333
3 60 61 333
4 61 62 329 331
4 62 63 330 329
4 63 65 350 330
4 65 67 351 350
4 67 69 352 351
4 69 71 353 352
3 71 354 353
3 73 355 354
3 71 73 354
3 73 356 355
3 73 76 357
3 73 357 356
3 76 323 357
3 29 321 323
3 76 29 323
3 322 357 323
3 322 358 356
3 322 356 357
4 359 324 325 341
4 360 359 341 343
4 361 360 343 345
3 345 347 362
3 347 349 363
3 330 350 349
3 350 351 363
3 351 352 364
4 365 366 352 353
4 367 365 353 354
3 358 355 356
3 358 367 354
3 358 354 355
4 368 361 345 362
3 362 347 363
3 349 350 363
3 364 363 351
4 352 366 369 364
4 369 368 362 364
3 364 362 363
3 296 370 301
3 371 372 373
3 296 373 370
3 296 374 371
3 296 371 373
3 303 374 296
3 303 375 376
3 303 376 374
3 377 376 378
3 377 371 374
3 377 374 376
3 379 371 377
3 380 372 371
3 379 380 371
3 101 381 102
3 373 372 380
3 101 380 381
3 101 373 380
3 104 373 101
3 104 382 370
3 104 370 373
3 301 383 312
3 301 370 382
3 301 382 383
3 314 375 303
3 314 384 385
3 314 385 375
3 378 385 386
3 378 376 375
3 378 375 385
3 387 380 379
3 387 388 381
3 387 381 380
3 102 389 112
3 102 381 388
3 102 388 389
3 114 382 104
3 114 390 383
3 114 383 382
3 312 391 322
3 312 383 390
3 312 390 391
4 324 392 384 314
3 386 392 393
3 385 384 392
3 386 385 392
4 394 395 396 397
3 397 398 399
3 397 396 400
3 397 400 398
3 399 401 402
3 399 398 403
3 399 403 401
3 402 404 405
3 402 401 406
3 402 406 404
3 405 388 387
3 405 404 389
3 405 389 388
4 393 392 407 408
4 408 407 409 410
4 410 409 411 412
4 412 411 413 414
4 414 413 415 416
4 416 415 395 394
3 112 406 142
3 112 389 404
3 112 404 406
3 142 403 143
3 142 406 401
3 142 401 403
3 143 400 144
3 143 403 398
3 143 398 400
4 144 400 396 145
4 145 396 395 146
4 146 395 417 147
4 147 417 418 149
4 149 418 419 151
4 151 419 420 153
3 153 421 156
3 153 420 422
3 153 422 421
3 156 423 159
3 421 424 423
3 156 421 423
3 159 390 114
3 159 423 391
3 159 391 390
3 322 424 358
3 322 391 423
3 322 423 424
4 359 407 392 324
4 360 409 407 359
4 361 411 409 360
3 411 425 413
3 413 426 415
3 395 415 417
3 417 426 418
3 418 427 419
4 365 420 419 366
4 367 422 420 365
3 358 422 367
3 358 424 421
3 358 421 422
4 368 425 411 361
3 425 426 413
3 415 426 417
3 427 418 426
4 419 427 369 366
4 369 427 425 368
3 427 426 425
3 428 429 430
3 431 432 433
3 428 433 429
3 428 434 431
3 428 431 433
3 435 434 428
3 435 436 437
3 435 437 434
3 306 437 307
3 306 431 434
3 306 434 437
3 308 431 306
3 438 432 431
3 308 438 431
3 175 439 176
3 433 432 438
3 175 438 439
3 175 433 438
3 178 433 175
3 178 440 429
3 178 429 433
3 430 441 442
3 430 429 440
3 430 440 441
3 443 436 435
3 443 444 445
3 443 445 436
3 307 445 317
3 307 437 436
3 307 436 445
3 318 438 308
3 318 446 439
3 318 439 438
3 176 447 186
3 176 439 446
3 176 446 447
3 188 440 178
3 448 441 440
3 188 448 440
3 442 449 450
3 442 441 448
3 442 448 449
4 451 452 444 443
3 317 452 326
3 317 445 444
3 317 444 452
4 327 453 454 328
3 328 455 332
3 328 454 456
3 328 456 455
3 332 457 335
3 332 455 458
3 332 458 457
3 335 459 338
3 335 457 460
3 335 460 459
3 338 446 318
3 338 459 447
3 338 447 446
4 326 452 461 340
4 340 461 462 342
4 342 462 463 344
4 344 463 464 346
4 346 464 465 348
4 348 465 453 327
3 186 460 207
3 186 447 459
3 186 459 460
3 207 458 208
3 207 460 457
3 207 457 458
3 208 456 209
3 208 458 455
3 208 455 456
4 209 456 454 210
4 210 454 453 211
4 211 453 466 212
4 212 466 467 214
4 214 467 468 216
4 216 468 469 218
3 218 470 221
3 218 469 471
3 218 471 470
3 221 472 224
3 470 473 472
3 221 470 472
3 224 448 188
3 224 472 449
3 224 449 448
3 450 473 474
3 450 449 472
3 450 472 473
4 475 461 452 451
4 476 462 461 475
4 477 463 462 476
3 463 478 464
3 464 479 465
3 453 465 466
3 466 479 467
3 467 480 468
4 481 469 468 482
4 483 471 469 481
3 474 471 483
3 474 473 470
3 474 470 471
4 484 478 463 477
3 478 479 464
3 465 479 466
3 480 467 479
4 468 480 485 482
4 485 480 478 484
3 480 479 478
3 428 486 487
3 488 489 486
3 430 490 488
3 428 430 486
3 430 488 486
3 435 491 492
3 428 487 491
3 435 428 491
3 377 487 486
3 378 491 487
3 377 378 487
3 379 489 493
3 377 486 489
3 379 377 489
3 246 489 488
3 248 494 493
3 246 493 489
3 246 248 493
3 249 490 495
3 249 246 488
3 249 488 490
3 430 495 490
3 442 496 495
3 430 442 495
3 443 497 498
3 435 492 497
3 443 435 497
3 378 492 491
3 386 497 492
3 378 386 492
3 387 494 499
3 379 493 494
3 387 379 494
3 248 499 494
3 256 500 499
3 248 256 499
3 257 496 501
3 249 495 496
3 257 249 496
3 442 501 496
3 450 502 501
3 442 450 501
4 451 443 498 503
3 386 498 497
3 393 503 498
3 386 393 498
4 394 397 504 505
3 397 506 504
3 399 507 506
3 397 399 506
3 399 508 507
3 402 509 508
3 399 402 508
3 402 510 509
3 405 511 510
3 402 405 510
3 405 500 511
3 387 499 500
3 405 387 500
4 393 408 512 503
4 408 410 513 512
4 410 412 514 513
4 412 414 515 514
4 414 416 516 515
4 416 394 505 516
3 256 511 500
3 274 510 511
3 256 274 511
3 274 509 510
3 275 508 509
3 274 275 509
3 275 507 508
3 276 506 507
3 275 276 507
4 276 277 504 506
4 277 278 505 504
4 278 280 517 505
4 280 282 518 517
4 282 284 519 518
4 284 286 520 519
3 286 521 520
3 288 522 521
3 286 288 521
3 288 523 522
3 291 524 523
3 288 291 523
3 291 502 524
3 257 501 502
3 291 257 502
3 450 524 502
3 474 523 524
3 450 474 524
4 475 451 503 512
4 476 475 512 513
4 477 476 513 514
3 514 515 525
3 515 516 526
3 505 517 516
3 517 518 526
3 518 519 527
4 481 482 519 520
4 483 481 520 521
3 474 522 523
3 483 521 522
3 474 483 522
4 484 477 514 525
3 525 515 526
3 516 517 526
3 527 526 518
4 519 482 485 527
4 485 484 525 527
3 527 525 526
